# xmcd
#
# Track frame offsets:
#	150
#	12536
#	25264
#	41448
#	51437
#	66024
#	78595
#	90859
#	102809
#	114475
#	131008
#	143937
#	154449
#	165515
#	177225
#	187769
#	199339
#	209392
#	221820
#	236610
#
# Disc length: 3366 seconds
#
# Revision: 1
# Processed by: cddbd v1.5.2PL0 Copyright (c) Steve Scherf et al.
# Submitted via: audiograbber 1.83.01
#
DISCID=190d2414
DTITLE=Various Artist - Bluegrass Hit Festival - CD10
DYEAR=1900
DGENRE=Bluegrass
TTITLE0=Bill Monroe - Uncle Penn
TTITLE1=Lester Flatt and Earl Scruggs - Doin' My Time
TTITLE2=The Blue Sky Boys - The Story Of The Knoxville Girl
TTITLE3=The Stanley Brothers - The Jealous Lover
TTITLE4=Bill Monroe - The Girl In The Blue Velvet Band
TTITLE5=Wade Mainer Trio - The Girl I Left In Sunny Tennessee
TTITLE6=Lester Flatt and Earl Scruggs - My Little Girl In Tennessee
TTITLE7=The Morris Brothers - Salty Dog Blues
TTITLE8=Tommy Magness - Little Country Preacher
TTITLE9=The Monroe Brothers - New River Train
TTITLE10=The Bailey Brothers - Have You Forgotten
TTITLE11=The Stanley Brothers - Little Maggie
TTITLE12=Lester Flatt and Earl Scruggs - I'll Never Shed Another Tear
TTITLE13=J. E. Mainer - Lonely Tombs
TTITLE14=The Monroe Brothers - Just A Song Of Old Kentucky
TTITLE15=Tommy Magness - When I Safely Reach The Other Shore
TTITLE16=The Stanley Brothers - Our Darling's Gone
TTITLE17=Lester Flatt and Earl Scruggs - Pike County Breakdown
TTITLE18=The Blue Sky Boys - In The Hills Of Roane County
TTITLE19=The Monroe Brothers - Banks Of The Ohio
EXTD=
EXTT0=
EXTT1=
EXTT2=
EXTT3=
EXTT4=
EXTT5=
EXTT6=
EXTT7=
EXTT8=
EXTT9=
EXTT10=
EXTT11=
EXTT12=
EXTT13=
EXTT14=
EXTT15=
EXTT16=
EXTT17=
EXTT18=
EXTT19=
PLAYORDER=
